inDegrees=yes
name=ik_S48_A12_T02
DataType=double
version=3
OpenSimVersion=4.3-2021-08-27-4bc7ad9
endheader
time	pelvis_tilt	pelvis_list	pelvis_rotation	pelvis_tx	pelvis_ty	pelvis_tz	hip_flexion_r	hip_adduction_r	hip_rotation_r	knee_angle_r	knee_angle_r_beta	ankle_angle_r	subtalar_angle_r	mtp_angle_r	hip_flexion_l	hip_adduction_l	hip_rotation_l	knee_angle_l	knee_angle_l_beta	ankle_angle_l	subtalar_angle_l	mtp_angle_l	lumbar_extension	lumbar_bending	lumbar_rotation	arm_flex_r	arm_add_r	arm_rot_r	elbow_flex_r	pro_sup_r	wrist_flex_r	wrist_dev_r	arm_flex_l	arm_add_l	arm_rot_l	elbow_flex_l	pro_sup_l	wrist_flex_l	wrist_dev_l
0	0	0	0	0	0.9399999999999999	0	0	0	0	0	0	0	0	0	0	0	0	0	0	0	0	0	0	0	0	0	0	0	0	89.99999999963507	0	0	0	0	0	0	89.99999999869995	0	0
0.02	-1.903392294326828	-2.14196134097282	29.42421159894134	0	0.9399999999999999	0	1.809219364631805	-0.8553039457764718	-0.6085028614924239	2.814508252494957	0.04912243583058892	0	0	0	1.809219364631805	-0.8553039457764718	-0.6085028614924239	2.814508252494957	0.04912243583058892	0	0	0	-1.85804501981451	-0.9190292729774515	12.65533517720542	17.26549987843524	-5.535754806800016	-0.3094077561020325	4.727780449390248	133.8244713584313	0	0	15.01074150239111	-10.74426586079245	-2.668527918796898	7.562222142479301	107.2446164949014	0	0
0.04	-1.907357238467467	-2.141117357112991	29.43349465022738	0	0.9399999999999999	0	1.883714559255144	-0.8939714006405782	-0.6350192403300191	2.907073892560514	0.05073801102394886	0	0	0	1.883714559255144	-0.8939714006405782	-0.6350192403300191	2.907073892560514	0.05073801102394886	0	0	0	-1.861910874611368	-0.9161943780803113	12.64504902172368	17.24335890307443	-5.547129978366104	-0.3143895651867227	4.809437040803396	133.8388236626874	0	0	14.98110710221138	-10.74636936569234	-2.688366971394021	7.592913111385321	107.2440534546326	0	0
0.06	-1.915140607790396	-2.147067866968413	29.4417482547454	0	0.9399999999999999	0	2.014009443375297	-0.9497782149242615	-0.6844339147803924	2.979266096956805	0.05199800268493686	0	0	0	2.014009443375297	-0.9497782149242615	-0.6844339147803924	2.979266096956805	0.05199800268493686	0	0	0	-1.873790950940183	-0.9175030378881299	12.62185084111948	17.26065248749839	-5.542247663620914	-0.2823999033768973	4.757617430599685	133.8395382144257	0	0	14.99176206291871	-10.75410547080048	-2.74040504669612	7.526577694329723	107.2842804832479	0	0
0.08	-1.903351275400883	-2.144750288236852	29.78770513194634	0	0.9399999999999999	0	3.95368674137212	-1.843666996722598	-1.384869847849459	4.965717959812708	0.08666812812414722	0	0	0	3.95368674137212	-1.843666996722598	-1.384869847849459	4.965717959812708	0.08666812812414722	0	0	0	-1.901881284874793	-0.9014298558761801	12.27002137041512	17.26108418155129	-5.539710669999405	-0.2711422674943061	4.768255546972604	133.8252043026403	0	0	14.96512401988772	-10.75563093637229	-2.733764888777943	7.545427277135738	107.2444463660435	0	0
0.1	-1.926963344115635	-2.173641818573773	29.80359201825249	0	0.9399999999999999	0	4.036577379777649	-1.881287590063107	-1.414327110272356	5.044484478712259	0.08804286321927872	0	0	0	4.036577379777649	-1.881287590063107	-1.414327110272356	5.044484478712259	0.08804286321927872	0	0	0	-1.937463046796013	-0.915213314778901	12.25870809054992	17.26593270418796	-5.536193266177588	-0.2530654709099896	4.797723529165697	133.8220641025496	0	0	15.02554988718539	-10.75800588007598	-2.693595525401417	7.551789949763968	107.253811988624	0	0
0.12	-1.92876754497041	-2.17405448422171	29.85872732585029	0	0.9399999999999999	0	4.425280373397504	-2.040288553050823	-1.552177248050748	5.338633241609492	0.09317672762250358	0	0	0	4.425280373397504	-2.040288553050823	-1.552177248050748	5.338633241609492	0.09317672762250358	0	0	0	-1.944188104388575	-0.9166729779736361	12.20173373650625	17.2745968616513	-5.534124943175865	-0.2535254401303425	4.782139465904212	133.8263371231618	0	0	15.01687492845576	-10.7480029685522	-2.660471266838735	7.546176735053176	107.2237700777306	0	0
0.14	-1.93209877602629	-2.176837346409212	29.84994428911995	0	0.9399999999999999	0	4.543781955128331	-2.088652750248502	-1.593991931841027	5.430811490530891	0.0947855415649049	0	0	0	4.543781955128331	-2.088652750248502	-1.593991931841027	5.430811490530891	0.0947855415649049	0	0	0	-1.950996031001348	-0.916771047338234	12.1529219954609	17.26063891703844	-5.501282328760455	-0.1863151215102946	4.750746528696028	133.8149901516493	0	0	15.01125733646967	-10.7651283774535	-2.743789057385353	7.526404356308393	107.2516466541135	0	0
0.16	-1.938548810583209	-2.176797066337177	29.88769852133559	0	0.9399999999999999	0	4.929498729854326	-2.246850592572565	-1.729168035720134	5.742260810314386	0.1002213576482236	0	0	0	4.929498729854326	-2.246850592572565	-1.729168035720134	5.742260810314386	0.1002213576482236	0	0	0	-1.961257446616008	-0.9159177111219338	12.09894788603578	17.25979386816187	-5.500922435602207	-0.2350085134287403	4.824828059902002	133.9229680320526	0	0	15.00373544847557	-10.76001506045213	-2.764733132588993	7.532872171315708	107.3247870287428	0	0
0.18	-1.942262842185944	-2.17603795706981	29.92420312976533	0	0.9399999999999999	0	5.281031963173558	-2.384366622425787	-1.85155198986559	6.005401507209744	0.10481402920504	0	0	0	5.281031963173558	-2.384366622425787	-1.85155198986559	6.005401507209744	0.10481402920504	0	0	0	-1.967782622535728	-0.9166394735238635	12.06086468038405	17.26310250343187	-5.48521214805125	-0.2664384247666582	4.800373996155908	133.8883222764041	0	0	15.02601861435616	-10.74776701636544	-2.75803957032863	7.525514130784238	107.2904140529613	0	0
0.2	-1.93570265702809	-2.155550574605133	29.93443271911393	0	0.9399999999999999	0	5.549564309057916	-2.489429465349508	-1.944739569365944	6.20841835103986	0.1083573415668827	0	0	0	5.549564309057916	-2.489429465349508	-1.944739569365944	6.20841835103986	0.1083573415668827	0	0	0	-1.954745761076282	-0.9045186110797041	12.02445734818335	17.24750326715273	-5.499661270010131	-0.2860857218139846	4.780642283104749	133.9579442736252	0	0	14.99442069907849	-10.72894700032657	-2.757424400571337	7.494850303080463	107.2746104273773	0	0
0.22	-1.942239839330651	-2.126277467154835	30.04248183916555	0	0.9399999999999999	0	6.658247373881863	-2.948355758696314	-2.323031384109322	7.277758429968713	0.1270208467677272	0	0	0	6.658247373881863	-2.948355758696314	-2.323031384109322	7.277758429968713	0.1270208467677272	0	0	0	-1.949712755705359	-0.8980795151652619	11.8959532271759	17.20358467133666	-5.509342164013534	-0.3594623720414351	4.840796303857845	133.9724117648128	0	0	14.95725402183599	-10.70106235586248	-2.787001837225602	7.582639809868053	107.2045598142802	0	0
